<svg width="1536" height="1024" viewBox="0 0 1536 1024" xmlns="http://www.w3.org/2000/svg">
  <defs>
    <filter id="shadow" x="-20%" y="-20%" width="140%" height="140%">
      <feDropShadow dx="0" dy="10" stdDeviation="10" flood-color="#1b120d" flood-opacity="0.45"/>
    </filter>
    <style>
      .ui { font-family: ui-sans-serif, -apple-system, BlinkMacSystemFont, "Inter", sans-serif; }
      .pixel { image-rendering: pixelated; }
      .small { font-size: 18px; fill: #6c4630; }
      .title { font-size: 28px; font-weight: 800; fill: #3d281d; }
      .label { font-size: 20px; font-weight: 700; fill: #3d281d; }
      .muted { font-size: 16px; fill: #8a6145; }
    </style>
  </defs>

  <image class="pixel" href="../assets/cafe/pixel/scene-empty.png" width="1536" height="1024"/>
  <rect width="1536" height="1024" fill="#1b130d" opacity="0.08"/>

  <g class="ui" filter="url(#shadow)">
    <rect x="28" y="24" width="414" height="292" rx="18" fill="#fff1d0" stroke="#6b3f24" stroke-width="4"/>
    <path d="M52 80 H418" stroke="#d59a5f" stroke-width="3" stroke-dasharray="8 8"/>
    <text x="54" y="62" class="title">Cafe Ticket</text>
    <text x="54" y="111" class="muted">Your quiet table for co-working</text>

    <text x="54" y="158" class="label">Cat</text>
    <rect x="110" y="132" width="88" height="44" rx="10" fill="#e7b36e"/>
    <circle cx="140" cy="154" r="14" fill="#d66d2e"/>
    <circle cx="168" cy="154" r="14" fill="#f2cc92"/>
    <text x="216" y="160" class="small">Momo</text>

    <text x="54" y="210" class="label">Sound</text>
    <rect x="138" y="184" width="116" height="42" rx="10" fill="#6f8f75"/>
    <text x="159" y="211" font-size="18" fill="#fff9e8" font-weight="700">Rain</text>
    <rect x="270" y="184" width="126" height="42" rx="10" fill="#e3c89b"/>
    <text x="291" y="211" font-size="18" fill="#5b3a28" font-weight="700">Noise</text>

    <rect x="54" y="244" width="342" height="42" rx="12" fill="#3f2a20"/>
    <text x="84" y="271" font-size="18" fill="#fff5dd" font-weight="700">3 cats online · 2 tables open</text>
  </g>

  <g class="ui">
    <rect x="244" y="558" width="330" height="304" rx="20" fill="#f2cb79" opacity="0.20" stroke="#ffd166" stroke-width="5" stroke-dasharray="12 8"/>
    <rect x="252" y="526" width="228" height="48" rx="14" fill="#2f2019" opacity="0.92"/>
    <text x="276" y="556" font-size="19" fill="#fff1cc" font-weight="800">Window table · open</text>

    <rect x="552" y="350" width="330" height="326" rx="20" fill="#ffffff" opacity="0.12" stroke="#f4a261" stroke-width="4"/>
    <rect x="590" y="318" width="274" height="48" rx="14" fill="#2f2019" opacity="0.92"/>
    <text x="616" y="348" font-size="19" fill="#fff1cc" font-weight="800">Calico + Luna working</text>

    <rect x="815" y="268" width="324" height="322" rx="20" fill="#ffffff" opacity="0.10" stroke="#9dc7ff" stroke-width="4"/>
    <rect x="856" y="236" width="230" height="48" rx="14" fill="#2f2019" opacity="0.92"/>
    <text x="882" y="266" font-size="19" fill="#fff1cc" font-weight="800">Focus seat · open</text>
  </g>

  <g class="ui" filter="url(#shadow)">
    <rect x="1070" y="850" width="464" height="80" rx="18" fill="#241812" opacity="0.94"/>
    <circle cx="1116" cy="890" r="14" fill="#77b46b"/>
    <text x="1140" y="884" font-size="18" fill="#fff4da" font-weight="800">Shared cafe link</text>
    <text x="1140" y="910" font-size="15" fill="#d9b98d">Friends can join, pick a table, and work quietly.</text>
  </g>
</svg>
